<svg xmlns="http://www.w3.org/2000/svg" xmlns:xlink="http://www.w3.org/1999/xlink" width="1920" zoomAndPan="magnify" viewBox="0 0 1440 809.999993" height="1080" preserveAspectRatio="xMidYMid meet" version="1.0"><defs><clipPath id="be32443725"><path d="M 0 149 L 1440 149 L 1440 405.25 L 0 405.25 Z M 0 149 " clip-rule="nonzero"/></clipPath><clipPath id="f5d51d54c5"><path d="M 0 385.714844 L 1440 385.714844 L 1440 810 L 0 810 Z M 0 385.714844 " clip-rule="nonzero"/></clipPath></defs><g clip-path="url(#be32443725)"><path fill="#20101a" d="M 0.0195312 149.050781 L 48.015625 175.769531 C 96.015625 202.089844 192.011719 256.132812 288.011719 282.453125 C 384.007812 309.175781 480.003906 309.175781 576.003906 287.859375 C 672 266.140625 768 224.109375 863.996094 229.113281 C 959.992188 234.117188 1055.992188 288.160156 1151.988281 282.453125 C 1247.988281 277.148438 1343.984375 213.101562 1391.984375 181.074219 L 1439.980469 149.050781 L 1439.980469 405.25 L 1391.984375 405.25 C 1343.984375 405.25 1247.988281 405.25 1151.988281 405.25 C 1055.992188 405.25 959.992188 405.25 863.996094 405.25 C 768 405.25 672 405.25 576.003906 405.25 C 480.003906 405.25 384.007812 405.25 288.011719 405.25 C 192.011719 405.25 96.015625 405.25 48.015625 405.25 L 0.0195312 405.25 Z M 0.0195312 149.050781 " fill-opacity="1" fill-rule="nonzero"/></g><g clip-path="url(#f5d51d54c5)"><path fill="#20101a" d="M 0 385.714844 L 1440.28125 385.714844 L 1440.28125 809.699219 L 0 809.699219 Z M 0 385.714844 " fill-opacity="1" fill-rule="nonzero"/></g></svg>