<svg xmlns="http://www.w3.org/2000/svg" xmlns:xlink="http://www.w3.org/1999/xlink" width="1280" zoomAndPan="magnify" viewBox="0 0 960 540.000001" height="720" preserveAspectRatio="xMidYMid meet" version="1.0"><defs><clipPath id="ddb57e2153"><path d="M 0.886719 352 L 721 352 L 721 539 L 0.886719 539 Z M 0.886719 352 " clip-rule="nonzero"/></clipPath><clipPath id="2f660797c5"><path d="M 65.925781 166.980469 L 830.496094 449.910156 L 562.113281 1175.164062 L -202.457031 892.234375 Z M 65.925781 166.980469 " clip-rule="nonzero"/></clipPath><clipPath id="c891adea4d"><path d="M 65.925781 166.980469 L 830.496094 449.910156 L 562.113281 1175.164062 L -202.457031 892.234375 Z M 65.925781 166.980469 " clip-rule="nonzero"/></clipPath><clipPath id="d361cc3a91"><path d="M 403 393 L 959.113281 393 L 959.113281 539 L 403 539 Z M 403 393 " clip-rule="nonzero"/></clipPath><clipPath id="fa666fad1c"><path d="M 1290.519531 701.292969 L 779.210938 1336.257812 L 176.898438 851.246094 L 688.203125 216.277344 Z M 1290.519531 701.292969 " clip-rule="nonzero"/></clipPath><clipPath id="ffad3cbed7"><path d="M 1290.519531 701.292969 L 779.210938 1336.257812 L 176.898438 851.246094 L 688.203125 216.277344 Z M 1290.519531 701.292969 " clip-rule="nonzero"/></clipPath></defs><g clip-path="url(#ddb57e2153)"><g clip-path="url(#2f660797c5)"><g clip-path="url(#c891adea4d)"><path fill="#343c50" d="M 719.640625 625.082031 C 720.421875 602.773438 720.417969 580.175781 719.558594 557.96875 C 718.769531 538.460938 716.339844 519.054688 709.285156 500.609375 C 706.023438 492.105469 701.75 483.941406 696.929688 476.285156 C 696.75 475.328125 696.625 474.214844 696.289062 473.203125 C 689.929688 439.886719 670.257812 408.40625 637.699219 396.359375 C 619.308594 377.277344 595.902344 363.097656 569.96875 356.707031 C 533.417969 347.273438 496.371094 354.558594 460.824219 364.535156 C 422.230469 375.523438 384.675781 387.070312 344.144531 387.910156 C 301.132812 388.71875 258.476562 381.832031 215.75 377.050781 C 139.78125 368.335938 52.882812 367.496094 -6.3125 424.0625 C -22.769531 439.679688 -33.496094 457.597656 -40.402344 476.75 C -43.21875 480.511719 -45.722656 484.390625 -47.96875 488.539062 C -59.496094 506.695312 -67.039062 527.570312 -69.074219 549.414062 C -73.054688 590.46875 -60.570312 630.320312 -48.269531 669.214844 C -39.929688 730.84375 -31.21875 792.429688 -21.921875 853.878906 C -17.109375 886.085938 -10.726562 920.300781 8.886719 947.132812 C 31.980469 978.988281 70.480469 987.007812 107.648438 980.832031 C 120.765625 978.566406 133.605469 975.132812 145.992188 971 C 176.640625 970.417969 204.507812 954.75 232.34375 941.5625 C 249.617188 933.363281 267.132812 927.390625 286.167969 925.003906 C 306.160156 922.4375 326.246094 923.464844 346.167969 926.386719 C 388.527344 932.632812 428.792969 951.269531 471.761719 953.46875 C 541.242188 957.117188 605.730469 917.992188 647.910156 865.089844 C 701.433594 797.886719 716.960938 708.789062 719.640625 625.082031 Z M 163.046875 386.730469 C 242.6875 389.867188 322.316406 412.75 401.726562 395.339844 C 436.566406 387.765625 470.007812 374.339844 505.417969 368.585938 C 541.574219 362.746094 577.578125 367.882812 608.207031 389.003906 C 608.929688 389.449219 609.5 389.839844 610.164062 390.441406 C 577.808594 388.429688 545.882812 400.640625 516.007812 413.074219 C 497.484375 420.808594 478.804688 428.488281 459.210938 433.335938 C 441.804688 437.570312 424.078125 440.265625 406.347656 441.53125 C 370.882812 444.066406 335.21875 441.367188 299.917969 437.203125 C 228.050781 428.9375 155.765625 414.109375 83.0625 420.125 C 63.945312 421.769531 44.71875 425.152344 26.402344 431.363281 C 25.503906 431.386719 24.449219 431.351562 23.433594 431.6875 C 12.21875 435.542969 1.535156 440.84375 -8.027344 447.449219 C -8.726562 447.902344 -9.371094 448.195312 -9.914062 448.707031 C 28.5 397.796875 102.03125 384.257812 163.046875 386.730469 Z M 658.980469 823.636719 C 627.050781 879.617188 572.074219 926.710938 507.085938 937.359375 C 467.695312 943.777344 430.898438 932.117188 393.363281 921.96875 C 357.398438 912.394531 319.84375 906.148438 282.765625 911.113281 C 274.332031 912.261719 266.195312 914.054688 258.195312 916.433594 C 270.28125 910.226562 282.460938 904.238281 294.726562 898.988281 C 328.304688 884.722656 362.769531 877.191406 399.332031 879.867188 C 438.6875 882.6875 477.277344 892.875 517.019531 890.320312 C 554.75 887.914062 587.949219 872.261719 610.808594 841.753906 C 635.101562 809.285156 647.910156 767.9375 659.933594 729.679688 C 673.128906 687.765625 683.136719 644.851562 690.15625 601.359375 C 693.671875 579.351562 696.40625 557.054688 698.085938 534.722656 C 698.621094 527.980469 699.003906 521.179688 699.226562 514.324219 C 699.363281 514.910156 699.5625 515.339844 699.703125 515.925781 C 705.179688 535.746094 705.722656 556.410156 706.007812 576.800781 C 707.078125 660.472656 701.105469 749.71875 658.980469 823.636719 Z M 658.980469 823.636719 " fill-opacity="1" fill-rule="nonzero"/></g></g></g><g clip-path="url(#d361cc3a91)"><g clip-path="url(#fa666fad1c)"><g clip-path="url(#ffad3cbed7)"><path fill="#343c50" d="M 648.367188 1175.46875 C 669.269531 1183.300781 690.699219 1190.480469 712.023438 1196.726562 C 730.773438 1202.179688 749.941406 1206.042969 769.675781 1205.21875 C 778.773438 1204.832031 787.875 1203.371094 796.664062 1201.238281 C 797.628906 1201.371094 798.722656 1201.609375 799.792969 1201.609375 C 833.398438 1206.171875 869.5 1197.527344 891.273438 1170.484375 C 915.214844 1159.117188 936.097656 1141.433594 950.402344 1118.878906 C 970.964844 1087.21875 975.832031 1049.78125 977.675781 1012.902344 C 979.527344 972.820312 980.515625 933.542969 992.605469 894.847656 C 1005.511719 853.808594 1025.601562 815.554688 1043.714844 776.566406 C 1076.132812 707.304688 1104.550781 625.183594 1069.738281 551.078125 C 1060.160156 530.507812 1046.582031 514.644531 1030.621094 502.003906 C 1027.949219 498.140625 1025.066406 494.535156 1021.847656 491.082031 C 1008.296875 474.386719 990.902344 460.59375 970.839844 451.722656 C 933.179688 434.898438 891.425781 434.066406 850.636719 433.363281 C 789.554688 421.679688 728.394531 410.363281 667.179688 399.640625 C 635.113281 393.964844 600.644531 389.140625 568.96875 399.207031 C 531.425781 410.976562 511.582031 444.929688 505.621094 482.132812 C 503.597656 495.289062 502.773438 508.554688 502.757812 521.613281 C 493.5625 550.855469 499.558594 582.257812 503.210938 612.84375 C 505.496094 631.824219 505.589844 650.332031 501.800781 669.136719 C 497.878906 688.910156 490.519531 707.628906 481.417969 725.585938 C 462.03125 763.761719 431.558594 796.015625 415.816406 836.054688 C 390.269531 900.773438 406.863281 974.355469 443.609375 1031.160156 C 490.316406 1103.273438 569.851562 1146.316406 648.367188 1175.46875 Z M 1051.292969 723.519531 C 1023 798.03125 975.992188 866.253906 967.257812 947.082031 C 963.359375 982.519531 965.457031 1018.496094 959.660156 1053.898438 C 953.703125 1090.035156 937.382812 1122.539062 907.625 1144.863281 C 906.96875 1145.40625 906.421875 1145.824219 905.636719 1146.265625 C 917.832031 1116.222656 916.40625 1082.074219 914.113281 1049.796875 C 912.667969 1029.773438 911.324219 1009.621094 912.957031 989.503906 C 914.472656 971.652344 917.554688 953.992188 921.992188 936.777344 C 930.859375 902.34375 944.757812 869.390625 959.929688 837.246094 C 990.613281 771.734375 1027.652344 707.910156 1045.058594 637.066406 C 1049.578125 618.417969 1052.480469 599.113281 1052.414062 579.773438 C 1052.679688 578.914062 1053.046875 577.925781 1053.050781 576.855469 C 1052.960938 564.996094 1051.328125 553.183594 1048.109375 542.019531 C 1047.902344 541.210938 1047.828125 540.503906 1047.515625 539.828125 C 1083.574219 592.433594 1073.035156 666.453125 1051.292969 723.519531 Z M 479.398438 1054.835938 C 436.472656 1006.769531 409.296875 939.667969 419.859375 874.667969 C 426.296875 835.277344 449.046875 804.097656 470.605469 771.738281 C 491.117188 740.679688 508.976562 707.058594 516.054688 670.328125 C 517.648438 661.96875 518.535156 653.679688 518.820312 645.339844 C 520.863281 658.773438 522.667969 672.226562 523.746094 685.523438 C 526.597656 721.894531 522.78125 756.964844 508.621094 790.78125 C 493.4375 827.199219 471.511719 860.546875 461.300781 899.039062 C 451.585938 935.578125 455.871094 972.03125 477.535156 1003.402344 C 500.59375 1036.757812 535.726562 1062.046875 568.175781 1085.605469 C 603.71875 1111.441406 641.230469 1134.574219 680.230469 1155.054688 C 699.980469 1165.382812 720.253906 1175.066406 740.894531 1183.757812 C 747.113281 1186.410156 753.4375 1188.929688 759.871094 1191.320312 C 759.269531 1191.269531 758.800781 1191.320312 758.203125 1191.265625 C 737.667969 1190.160156 717.902344 1184.101562 698.480469 1177.890625 C 618.808594 1152.308594 536.085938 1118.269531 479.398438 1054.835938 Z M 479.398438 1054.835938 " fill-opacity="1" fill-rule="nonzero"/></g></g></g></svg>