<svg xmlns="http://www.w3.org/2000/svg" xmlns:xlink="http://www.w3.org/1999/xlink" width="1280" zoomAndPan="magnify" viewBox="0 0 960 329.999987" height="440" preserveAspectRatio="xMidYMid meet" version="1.0"><defs><clipPath id="82c4d4a0bd"><path d="M 0 46 L 508 46 L 508 330 L 0 330 Z M 0 46 " clip-rule="nonzero"/></clipPath><clipPath id="c5007bdea7"><path d="M 615.976562 410.242188 L 32.84375 854.46875 L -413.710938 268.277344 L 169.421875 -175.949219 Z M 615.976562 410.242188 " clip-rule="nonzero"/></clipPath><clipPath id="eff837690d"><path d="M 615.976562 410.242188 L 32.84375 854.46875 L -413.710938 268.277344 L 169.421875 -175.949219 Z M 615.976562 410.242188 " clip-rule="nonzero"/></clipPath><clipPath id="ee063cf879"><path d="M 142 8 L 960 8 L 960 330 L 142 330 Z M 142 8 " clip-rule="nonzero"/></clipPath><clipPath id="21f136b6e4"><path d="M 34.53125 275.832031 L 526.582031 -267.550781 L 1072.816406 227.082031 L 580.765625 770.464844 Z M 34.53125 275.832031 " clip-rule="nonzero"/></clipPath><clipPath id="0ec0526af0"><path d="M 34.53125 275.832031 L 526.582031 -267.550781 L 1072.816406 227.082031 L 580.765625 770.464844 Z M 34.53125 275.832031 " clip-rule="nonzero"/></clipPath><clipPath id="bbab2840af"><path d="M 614 0 L 960 0 L 960 330 L 614 330 Z M 614 0 " clip-rule="nonzero"/></clipPath><clipPath id="18902afbb1"><path d="M 506.648438 207.863281 L 998.699219 -335.519531 L 1544.929688 159.113281 L 1052.878906 702.496094 Z M 506.648438 207.863281 " clip-rule="nonzero"/></clipPath><clipPath id="b17b3537b5"><path d="M 506.648438 207.863281 L 998.699219 -335.519531 L 1544.929688 159.113281 L 1052.878906 702.496094 Z M 506.648438 207.863281 " clip-rule="nonzero"/></clipPath></defs><g clip-path="url(#82c4d4a0bd)"><g clip-path="url(#c5007bdea7)"><g clip-path="url(#eff837690d)"><path fill="#191919" d="M -300.878906 411.347656 C -271.78125 444.15625 -239.074219 474.21875 -203.929688 500.59375 C -171.484375 524.921875 -122.113281 556.203125 -68.90625 547.605469 C -30.78125 541.375 -0.453125 516.21875 28.863281 491.832031 C 59.046875 466.785156 87.351562 443.167969 122.746094 439.929688 C 166.914062 435.9375 208.222656 466.515625 243.679688 495.394531 C 279.097656 524.527344 323.28125 560.671875 375.960938 558.867188 C 414.707031 557.636719 453.644531 533.90625 477.277344 496.96875 C 496.929688 466.484375 506.90625 428.089844 507.359375 382.578125 C 507.8125 317.90625 486.546875 251.070312 447.542969 194.785156 C 408.429688 138.351562 353.5625 95.066406 292.609375 72.835938 C 247.707031 56.402344 197.132812 48.390625 128.574219 47.011719 C 74.605469 45.921875 20.230469 48.792969 -33.386719 55.648438 C -85.953125 62.390625 -152.882812 74.824219 -206.15625 112.667969 L -230.125 129.105469 C -238.570312 135.082031 -247.050781 141.316406 -255.421875 147.691406 C -278.800781 165.5 -301.402344 185.230469 -319.144531 209.238281 C -346.804688 246.277344 -358.019531 289.039062 -350.261719 326.46875 C -343.179688 360.3125 -321.339844 388.382812 -300.878906 411.347656 Z M -300.878906 411.347656 " fill-opacity="1" fill-rule="nonzero"/></g></g></g><g clip-path="url(#ee063cf879)"><g clip-path="url(#21f136b6e4)"><g clip-path="url(#0ec0526af0)"><path fill="#191919" d="M 935.71875 107.058594 C 901.113281 80.125 863.460938 56.554688 824.082031 37.050781 C 787.734375 19.066406 733.476562 -2.65625 682.738281 15.523438 C 646.394531 28.625 621.179688 58.90625 596.820312 88.242188 C 571.726562 118.382812 548.214844 146.78125 514.011719 156.4375 C 471.320312 168.4375 425.113281 145.933594 384.976562 124.027344 C 344.824219 101.863281 294.773438 74.410156 243.316406 85.816406 C 205.449219 94.113281 171.507812 124.566406 155.03125 165.203125 C 141.28125 198.765625 138.496094 238.339844 146.375 283.164062 C 157.757812 346.828125 190.890625 408.648438 239.527344 456.851562 C 288.300781 505.179688 350.164062 537.699219 414.152344 548.40625 C 461.304688 556.351562 512.492188 554.976562 580.144531 543.792969 C 633.402344 534.992188 686.332031 522.226562 737.792969 505.679688 C 788.238281 489.441406 851.765625 464.972656 897.21875 418.023438 L 917.777344 397.480469 C 924.988281 390.058594 932.1875 382.382812 939.25 374.582031 C 958.976562 352.796875 977.589844 329.269531 990.644531 302.417969 C 1011.0625 260.945312 1014.265625 216.855469 999.792969 181.476562 C 986.640625 149.5 960.035156 125.894531 935.71875 107.058594 Z M 935.71875 107.058594 " fill-opacity="1" fill-rule="nonzero"/></g></g></g><g clip-path="url(#bbab2840af)"><g clip-path="url(#18902afbb1)"><g clip-path="url(#b17b3537b5)"><path fill="#191919" d="M 1407.835938 39.089844 C 1373.226562 12.15625 1335.574219 -11.414062 1296.199219 -30.917969 C 1259.851562 -48.902344 1205.589844 -70.625 1154.855469 -52.445312 C 1118.511719 -39.34375 1093.296875 -9.066406 1068.933594 20.269531 C 1043.839844 50.414062 1020.332031 78.808594 986.128906 88.464844 C 943.433594 100.46875 897.230469 77.964844 857.089844 56.054688 C 816.9375 33.894531 766.890625 6.4375 715.433594 17.847656 C 677.566406 26.144531 643.625 56.597656 627.144531 97.230469 C 613.398438 130.796875 610.613281 170.371094 618.492188 215.195312 C 629.875 278.859375 663.003906 340.675781 711.644531 388.882812 C 760.417969 437.207031 822.277344 469.730469 886.269531 480.4375 C 933.421875 488.382812 984.605469 487.007812 1052.261719 475.824219 C 1105.515625 467.023438 1158.449219 454.257812 1209.90625 437.710938 C 1260.355469 421.46875 1323.882812 397.003906 1369.332031 350.054688 L 1389.894531 329.511719 C 1397.105469 322.089844 1404.300781 314.414062 1411.363281 306.613281 C 1431.089844 284.828125 1449.703125 261.296875 1462.757812 234.449219 C 1483.175781 192.976562 1486.382812 148.886719 1471.90625 113.507812 C 1458.757812 81.527344 1432.148438 57.925781 1407.835938 39.089844 Z M 1407.835938 39.089844 " fill-opacity="1" fill-rule="nonzero"/></g></g></g></svg>